{
.appVersion = "3151";
.formatVersion = 3;
date = "2023-03-31 22:00:19 +0000";
familyName = "Art Disco";
featurePrefixes = (
{
automatic = 1;
code = "languagesystem DFLT dflt;
";
name = Languagesystems;
}
);
features = (
{
automatic = 1;
code = "feature ss01;
feature calt;
";
tag = aalt;
},
{
automatic = 1;
code = "sub A by A.ss01;
sub Y by Y.ss01;
";
labels = (
{
language = dflt;
value = "";
}
);
tag = ss01;
},
{
code = "sub C' T by C.extended;
sub C' [Y Y.ss01] by C.extended;
sub K' T by K.extended;
sub K' [Y Y.ss01] by K.extended;
sub Q' T by Q.extended;
sub Q' [Y Y.ss01] by Q.extended;
sub R' T by R.extended;
sub R' [Y Y.ss01] by R.extended;
";
tag = calt;
}
);
fontMaster = (
{
customParameters = (
{
name = unitizerUnit;
value = "50";
}
);
id = m01;
metricValues = (
{
pos = 700;
},
{
},
{
pos = -300;
}
);
name = Regular;
userData = {
GSCornerRadius = 343;
};
}
);
glyphs = (
{
glyphname = A;
lastChange = "2023-04-02 08:53:38 +0000";
layers = (
{
layerId = m01;
shapes = (
{
closed = 1;
nodes = (
(362,0,l),
(505,496,l),
(647,0,l),
(750,0,l),
(550,700,l),
(250,700,l),
(50,0,l)
);
},
{
closed = 1;
nodes = (
(650,100,l),
(650,200,l),
(350,200,l),
(350,100,l)
);
}
);
width = 800;
}
);
unicode = (65,97);
},
{
glyphname = B;
lastChange = "2023-07-30 13:40:36 +0000";
layers = (
{
layerId = m01;
shapes = (
{
closed = 1;
nodes = (
(600,0,ls),
(687,0,o),
(750,63,o),
(750,150,cs),
(750,300,ls),
(750,361,o),
(706,405,o),
(645,405,cs),
(300,405,l),
(300,350,l),
(600,350,ls),
(629,350,o),
(650,329,o),
(650,300,cs),
(650,250,ls),
(650,221,o),
(629,200,o),
(600,200,cs),
(350,200,l),
(350,600,l),
(550,600,ls),
(579,600,o),
(600,579,o),
(600,550,cs),
(600,500,ls),
(600,471,o),
(579,450,o),
(550,450,cs),
(300,450,l),
(300,395,l),
(595,395,ls),
(656,395,o),
(700,439,o),
(700,500,cs),
(700,550,ls),
(700,637,o),
(637,700,o),
(550,700,cs),
(50,700,l),
(50,0,l)
);
}
);
width = 800;
}
);
unicode = (66,98);
},
{
glyphname = C;
kernRight = C_F_S;
lastChange = "2023-04-02 08:53:38 +0000";
layers = (
{
layerId = m01;
shapes = (
{
closed = 1;
nodes = (
(750,0,l),
(750,200,l),
(401,200,ls),
(372,200,o),
(350,222,o),
(350,251,cs),
(350,549,ls),
(350,578,o),
(372,600,o),
(401,600,cs),
(650,600,l),
(650,700,l),
(203,700,ls),
(115,700,o),
(50,635,o),
(50,547,cs),
(50,153,ls),
(50,65,o),
(115,0,o),
(203,0,cs)
);
}
);
width = 800;
}
);
unicode = (67,99);
},
{
glyphname = D;
lastChange = "2023-04-02 08:53:38 +0000";
layers = (
{
layerId = m01;
shapes = (
{
closed = 1;
nodes = (
(597,0,ls),
(685,0,o),
(750,65,o),
(750,153,cs),
(750,547,ls),
(750,635,o),
(685,700,o),
(597,700,cs),
(50,700,l),
(50,0,l)
);
},
{
closed = 1;
nodes = (
(350,600,l),
(599,600,ls),
(628,600,o),
(650,578,o),
(650,549,cs),
(650,251,ls),
(650,222,o),
(628,200,o),
(599,200,cs),
(350,200,l)
);
}
);
width = 800;
}
);
unicode = (68,100);
},
{
glyphname = E;
lastChange = "2023-04-02 08:53:38 +0000";
layers = (
{
layerId = m01;
shapes = (
{
closed = 1;
nodes = (
(750,0,l),
(750,200,l),
(350,200,l),
(350,350,l),
(700,350,l),
(700,450,l),
(350,450,l),
(350,600,l),
(650,600,l),
(650,700,l),
(50,700,l),
(50,0,l)
);
}
);
width = 800;
}
);
unicode = (69,101);
},
{
glyphname = F;
kernRight = C_F_S;
lastChange = "2023-04-02 08:53:38 +0000";
layers = (
{
layerId = m01;
shapes = (
{
closed = 1;
nodes = (
(350,0,l),
(350,350,l),
(750,350,l),
(750,450,l),
(350,450,l),
(350,600,l),
(650,600,l),
(650,700,l),
(50,700,l),
(50,0,l)
);
}
);
width = 800;
}
);
unicode = (70,102);
},
{
glyphname = G;
lastChange = "2023-04-02 08:53:38 +0000";
layers = (
{
layerId = m01;
shapes = (
{
closed = 1;
nodes = (
(597,0,ls),
(685,0,o),
(750,65,o),
(750,153,cs),
(750,400,l),
(651,400,l),
(650,251,ls),
(650,221,o),
(628,200,o),
(599,200,cs),
(401,200,ls),
(372,200,o),
(350,222,o),
(350,251,cs),
(351,549,ls),
(351,579,o),
(373,600,o),
(402,600,cs),
(650,600,l),
(650,700,l),
(203,700,ls),
(115,700,o),
(50,635,o),
(50,547,cs),
(50,153,ls),
(50,65,o),
(115,0,o),
(203,0,cs)
);
}
);
width = 800;
}
);
unicode = (71,103);
},
{
glyphname = H;
lastChange = "2023-04-02 08:53:38 +0000";
layers = (
{
layerId = m01;
shapes = (
{
closed = 1;
nodes = (
(350,0,l),
(350,350,l),
(650,350,l),
(650,0,l),
(750,0,l),
(750,700,l),
(650,700,l),
(650,450,l),
(350,450,l),
(350,700,l),
(50,700,l),
(50,0,l)
);
}
);
width = 800;
}
);
unicode = (72,104);
},
{
glyphname = I;
lastChange = "2023-04-02 08:53:38 +0000";
layers = (
{
layerId = m01;
shapes = (
{
closed = 1;
nodes = (
(350,0,l),
(350,700,l),
(50,700,l),
(50,0,l)
);
}
);
width = 400;
}
);
unicode = (73,105);
},
{
glyphname = J;
lastChange = "2023-04-02 08:53:38 +0000";
layers = (
{
layerId = m01;
shapes = (
{
closed = 1;
nodes = (
(600,0,ls),
(687,0,o),
(750,63,o),
(750,150,cs),
(750,700,l),
(450,700,l),
(450,250,ls),
(450,221,o),
(429,200,o),
(400,200,cs),
(50,200,l),
(50,0,l)
);
}
);
width = 800;
}
);
unicode = (74,106);
},
{
glyphname = K;
lastChange = "2023-04-02 08:53:38 +0000";
layers = (
{
layerId = m01;
shapes = (
{
closed = 1;
nodes = (
(350,0,l),
(350,700,l),
(50,700,l),
(50,0,l)
);
},
{
closed = 1;
nodes = (
(750,0,l),
(750,200,l),
(651,200,ls),
(622,200,o),
(600,222,o),
(600,251,cs),
(600,400,l),
(500,400,l),
(500,153,ls),
(500,65,o),
(565,0,o),
(653,0,cs)
);
},
{
closed = 1;
nodes = (
(600,350,ls),
(687,350,o),
(750,413,o),
(750,500,cs),
(750,700,l),
(650,700,l),
(650,500,ls),
(650,471,o),
(629,450,o),
(600,450,cs),
(300,450,l),
(300,350,l)
);
}
);
width = 800;
}
);
unicode = (75,107);
},
{
glyphname = L;
lastChange = "2023-04-02 08:53:38 +0000";
layers = (
{
layerId = m01;
shapes = (
{
closed = 1;
nodes = (
(750,0,l),
(750,200,l),
(350,200,l),
(350,700,l),
(50,700,l),
(50,0,l)
);
}
);
width = 800;
}
);
unicode = (76,108);
},
{
glyphname = M;
lastChange = "2023-04-02 08:53:38 +0000";
layers = (
{
layerId = m01;
shapes = (
{
closed = 1;
nodes = (
(350,0,l),
(350,556,l),
(550,350,l),
(750,540,l),
(750,0,l),
(850,0,l),
(850,700,l),
(750,700,l),
(550,494,l),
(350,700,l),
(50,700,l),
(50,0,l)
);
}
);
width = 900;
}
);
unicode = (77,109);
},
{
glyphname = N;
lastChange = "2023-04-02 08:53:38 +0000";
layers = (
{
layerId = m01;
shapes = (
{
closed = 1;
nodes = (
(350,0,l),
(350,575,l),
(650,350,l),
(650,0,l),
(750,0,l),
(750,700,l),
(650,700,l),
(650,475,l),
(350,700,l),
(50,700,l),
(50,0,l)
);
}
);
width = 800;
}
);
unicode = (78,110);
},
{
glyphname = O;
lastChange = "2023-04-02 09:24:37 +0000";
layers = (
{
layerId = m01;
shapes = (
{
closed = 1;
nodes = (
(600,0,ls),
(687,0,o),
(750,63,o),
(750,150,cs),
(750,550,ls),
(750,637,o),
(687,700,o),
(600,700,cs),
(200,700,ls),
(113,700,o),
(50,637,o),
(50,550,cs),
(50,150,ls),
(50,63,o),
(113,0,o),
(200,0,cs)
);
},
{
closed = 1;
nodes = (
(371,200,o),
(350,221,o),
(350,250,cs),
(350,550,ls),
(350,579,o),
(371,600,o),
(400,600,cs),
(600,600,ls),
(629,600,o),
(650,579,o),
(650,550,cs),
(650,250,ls),
(650,221,o),
(629,200,o),
(600,200,cs),
(400,200,ls)
);
}
);
width = 800;
}
);
unicode = (79,111);
},
{
glyphname = P;
lastChange = "2023-04-02 08:53:38 +0000";
layers = (
{
layerId = m01;
shapes = (
{
closed = 1;
nodes = (
(350,0,l),
(350,250,l),
(597,250,ls),
(685,250,o),
(750,315,o),
(750,403,cs),
(750,547,ls),
(750,635,o),
(685,700,o),
(597,700,cs),
(50,700,l),
(50,0,l)
);
},
{
closed = 1;
nodes = (
(350,600,l),
(599,600,ls),
(628,600,o),
(650,578,o),
(650,549,cs),
(650,401,ls),
(650,372,o),
(628,350,o),
(599,350,cs),
(350,350,l)
);
}
);
width = 800;
}
);
unicode = (80,112);
},
{
glyphname = Q;
lastChange = "2023-04-02 08:53:38 +0000";
layers = (
{
layerId = m01;
shapes = (
{
closed = 1;
nodes = (
(400,0,l),
(400,100,l),
(600,100,ls),
(684,100,o),
(750,166,o),
(750,250,cs),
(750,550,ls),
(750,634,o),
(684,700,o),
(600,700,cs),
(200,700,ls),
(116,700,o),
(50,634,o),
(50,550,cs),
(50,150,ls),
(50,66,o),
(116,0,o),
(200,0,cs)
);
},
{
closed = 1;
nodes = (
(800,0,l),
(800,200,l),
(765,172,o),
(677,150,o),
(600,150,cs),
(350,150,l),
(350,0,l)
);
},
{
closed = 1;
nodes = (
(372,200,o),
(350,222,o),
(350,250,cs),
(350,550,ls),
(350,578,o),
(372,600,o),
(400,600,cs),
(600,600,ls),
(628,600,o),
(650,578,o),
(650,550,cs),
(650,250,ls),
(650,222,o),
(628,200,o),
(600,200,cs),
(400,200,ls)
);
}
);
width = 800;
}
);
unicode = (81,113);
},
{
glyphname = R;
lastChange = "2023-04-02 08:53:38 +0000";
layers = (
{
layerId = m01;
shapes = (
{
closed = 1;
nodes = (
(350,0,l),
(350,250,l),
(597,250,ls),
(685,250,o),
(750,315,o),
(750,403,cs),
(750,547,ls),
(750,635,o),
(685,700,o),
(597,700,cs),
(50,700,l),
(50,0,l)
);
},
{
closed = 1;
nodes = (
(750,0,l),
(750,200,l),
(651,200,ls),
(622,200,o),
(600,222,o),
(600,251,cs),
(600,300,l),
(500,300,l),
(500,153,ls),
(500,65,o),
(565,0,o),
(653,0,cs)
);
},
{
closed = 1;
nodes = (
(350,600,l),
(599,600,ls),
(628,600,o),
(650,578,o),
(650,549,cs),
(650,401,ls),
(650,372,o),
(628,350,o),
(599,350,cs),
(350,350,l)
);
}
);
width = 800;
}
);
unicode = (82,114);
},
{
glyphname = S;
kernRight = C_F_S;
lastChange = "2023-04-02 08:53:38 +0000";
layers = (
{
layerId = m01;
shapes = (
{
closed = 1;
nodes = (
(597,0,ls),
(685,0,o),
(750,65,o),
(750,153,cs),
(750,297,ls),
(750,385,o),
(685,450,o),
(597,450,cs),
(401,450,ls),
(372,450,o),
(350,472,o),
(350,501,cs),
(350,549,ls),
(350,578,o),
(372,600,o),
(401,600,cs),
(650,600,l),
(650,700,l),
(203,700,ls),
(115,700,o),
(50,635,o),
(50,547,cs),
(50,503,ls),
(50,415,o),
(115,350,o),
(203,350,cs),
(599,350,ls),
(628,350,o),
(650,328,o),
(650,299,cs),
(650,251,ls),
(650,222,o),
(628,200,o),
(599,200,cs),
(50,200,l),
(50,0,l)
);
}
);
width = 800;
}
);
unicode = (83,115);
},
{
glyphname = T;
kernLeft = T_Y;
kernRight = T_Y;
lastChange = "2023-07-29 21:11:16 +0000";
layers = (
{
layerId = m01;
shapes = (
{
closed = 1;
nodes = (
(550,0,l),
(550,600,l),
(750,600,l),
(750,700,l),
(50,700,l),
(50,600,l),
(250,600,l),
(249,0,l)
);
}
);
width = 800;
}
);
unicode = (84,116);
},
{
glyphname = U;
lastChange = "2023-04-02 08:53:38 +0000";
layers = (
{
layerId = m01;
shapes = (
{
closed = 1;
nodes = (
(597,0,ls),
(685,0,o),
(750,65,o),
(750,153,cs),
(750,700,l),
(650,700,l),
(650,251,ls),
(650,222,o),
(628,200,o),
(599,200,cs),
(401,200,ls),
(372,200,o),
(350,222,o),
(350,251,cs),
(350,700,l),
(50,700,l),
(50,153,ls),
(50,65,o),
(115,0,o),
(203,0,cs)
);
}
);
width = 800;
}
);
unicode = (85,117);
},
{
glyphname = V;
kernLeft = V_W;
kernRight = V_W;
lastChange = "2023-04-02 08:53:38 +0000";
layers = (
{
layerId = m01;
shapes = (
{
closed = 1;
nodes = (
(556,0,l),
(750,700,l),
(646,700,l),
(504,188,l),
(362,700,l),
(50,700,l),
(244,0,l)
);
}
);
width = 800;
}
);
unicode = (86,118);
},
{
glyphname = W;
kernLeft = V_W;
kernRight = V_W;
lastChange = "2023-04-02 08:53:38 +0000";
layers = (
{
layerId = m01;
shapes = (
{
closed = 1;
nodes = (
(556,0,l),
(650,339,l),
(744,0,l),
(1056,0,l),
(1250,700,l),
(1146,700,l),
(1004,188,l),
(862,700,l),
(646,700,l),
(504,188,l),
(362,700,l),
(50,700,l),
(244,0,l)
);
}
);
width = 1300;
}
);
unicode = (87,119);
},
{
glyphname = X;
lastChange = "2023-04-02 08:53:38 +0000";
layers = (
{
layerId = m01;
shapes = (
{
closed = 1;
nodes = (
(750,0,l),
(388,700,l),
(50,700,l),
(412,0,l)
);
},
{
closed = 1;
nodes = (
(153,0,l),
(334,350,l),
(231,350,l),
(50,0,l)
);
},
{
closed = 1;
nodes = (
(569,350,l),
(750,700,l),
(647,700,l),
(466,350,l)
);
}
);
width = 800;
}
);
unicode = (88,120);
},
{
glyphname = Y;
kernLeft = T_Y;
kernRight = T_Y;
lastChange = "2023-04-02 08:53:38 +0000";
layers = (
{
layerId = m01;
shapes = (
{
closed = 1;
nodes = (
(550,0,l),
(550,430,l),
(396,700,l),
(50,700,l),
(250,350,l),
(250,0,l)
);
},
{
closed = 1;
nodes = (
(550,350,l),
(750,700,l),
(635,700,l),
(435,350,l)
);
}
);
width = 800;
}
);
unicode = (89,121);
},
{
glyphname = Z;
lastChange = "2023-04-02 09:10:28 +0000";
layers = (
{
layerId = m01;
shapes = (
{
closed = 1;
nodes = (
(432,200,l),
(750,600,l),
(368,600,l),
(50,200,l)
);
},
{
closed = 1;
nodes = (
(750,0,l),
(750,200,l),
(50,200,l),
(50,0,l)
);
},
{
closed = 1;
nodes = (
(750,600,l),
(750,700,l),
(50,700,l),
(50,600,l)
);
}
);
width = 800;
}
);
unicode = (90,122);
},
{
glyphname = C.extended;
kernRight = C_F_S;
lastChange = "2023-07-29 21:08:22 +0000";
layers = (
{
layerId = m01;
shapes = (
{
closed = 1;
nodes = (
(850,0,l),
(850,200,l),
(401,200,ls),
(372,200,o),
(350,222,o),
(350,251,cs),
(350,549,ls),
(350,578,o),
(372,600,o),
(401,600,cs),
(650,600,l),
(650,700,l),
(203,700,ls),
(115,700,o),
(50,635,o),
(50,547,cs),
(50,153,ls),
(50,65,o),
(115,0,o),
(203,0,cs)
);
}
);
width = 800;
}
);
},
{
glyphname = K.extended;
lastChange = "2023-07-29 20:55:45 +0000";
layers = (
{
layerId = m01;
shapes = (
{
closed = 1;
nodes = (
(350,0,l),
(350,700,l),
(50,700,l),
(50,0,l)
);
},
{
closed = 1;
nodes = (
(950,0,l),
(950,200,l),
(651,200,ls),
(622,200,o),
(600,222,o),
(600,251,cs),
(600,400,l),
(500,400,l),
(500,153,ls),
(500,65,o),
(565,0,o),
(653,0,cs)
);
},
{
closed = 1;
nodes = (
(600,350,ls),
(687,350,o),
(750,413,o),
(750,500,cs),
(750,700,l),
(650,700,l),
(650,500,ls),
(650,471,o),
(629,450,o),
(600,450,cs),
(300,450,l),
(300,350,l)
);
}
);
width = 800;
}
);
},
{
glyphname = Q.extended;
lastChange = "2023-07-29 21:13:04 +0000";
layers = (
{
layerId = m01;
shapes = (
{
closed = 1;
nodes = (
(400,0,l),
(400,100,l),
(600,100,ls),
(684,100,o),
(750,166,o),
(750,250,cs),
(750,550,ls),
(750,634,o),
(684,700,o),
(600,700,cs),
(200,700,ls),
(116,700,o),
(50,634,o),
(50,550,cs),
(50,150,ls),
(50,66,o),
(116,0,o),
(200,0,cs)
);
},
{
closed = 1;
nodes = (
(950,0,l),
(950,200,l),
(915,172,o),
(827,150,o),
(750,150,cs),
(350,150,l),
(350,0,l)
);
},
{
closed = 1;
nodes = (
(372,200,o),
(350,222,o),
(350,250,cs),
(350,550,ls),
(350,578,o),
(372,600,o),
(400,600,cs),
(600,600,ls),
(628,600,o),
(650,578,o),
(650,550,cs),
(650,250,ls),
(650,222,o),
(628,200,o),
(600,200,cs),
(400,200,ls)
);
}
);
width = 800;
}
);
},
{
glyphname = R.extended;
lastChange = "2023-07-29 20:55:29 +0000";
layers = (
{
layerId = m01;
shapes = (
{
closed = 1;
nodes = (
(350,0,l),
(350,250,l),
(597,250,ls),
(685,250,o),
(750,315,o),
(750,403,cs),
(750,547,ls),
(750,635,o),
(685,700,o),
(597,700,cs),
(50,700,l),
(50,0,l)
);
},
{
closed = 1;
nodes = (
(950,0,l),
(950,200,l),
(651,200,ls),
(622,200,o),
(600,222,o),
(600,251,cs),
(600,300,l),
(500,300,l),
(500,153,ls),
(500,65,o),
(565,0,o),
(653,0,cs)
);
},
{
closed = 1;
nodes = (
(350,600,l),
(599,600,ls),
(628,600,o),
(650,578,o),
(650,549,cs),
(650,401,ls),
(650,372,o),
(628,350,o),
(599,350,cs),
(350,350,l)
);
}
);
width = 800;
}
);
},
{
glyphname = A.ss01;
lastChange = "2023-07-29 20:48:45 +0000";
layers = (
{
layerId = m01;
shapes = (
{
closed = 1;
nodes = (
(350,0,l),
(350,449,ls),
(350,478,o),
(372,500,o),
(401,500,cs),
(599,500,ls),
(628,500,o),
(650,478,o),
(650,449,cs),
(650,0,l),
(750,0,l),
(750,547,ls),
(750,635,o),
(685,700,o),
(597,700,cs),
(203,700,ls),
(115,700,o),
(50,635,o),
(50,547,cs),
(50,0,l)
);
},
{
closed = 1;
nodes = (
(700,100,l),
(700,200,l),
(300,200,l),
(300,100,l)
);
}
);
width = 800;
}
);
},
{
glyphname = Y.ss01;
kernLeft = T_Y;
kernRight = T_Y;
lastChange = "2023-07-29 21:10:04 +0000";
layers = (
{
layerId = m01;
shapes = (
{
closed = 1;
nodes = (
(597,350,ls),
(685,350,o),
(750,415,o),
(750,503,cs),
(750,700,l),
(650,700,l),
(650,501,ls),
(650,472,o),
(628,450,o),
(599,450,cs),
(401,450,ls),
(372,450,o),
(350,472,o),
(350,501,cs),
(350,700,l),
(50,700,l),
(50,503,ls),
(50,415,o),
(115,350,o),
(203,350,cs)
);
},
{
closed = 1;
nodes = (
(550,0,l),
(550,400,l),
(250,400,l),
(250,0,l)
);
}
);
width = 800;
}
);
},
{
glyphname = zero;
lastChange = "2023-04-02 09:24:51 +0000";
layers = (
{
layerId = m01;
shapes = (
{
closed = 1;
nodes = (
(600,0,ls),
(687,0,o),
(750,63,o),
(750,150,cs),
(750,550,ls),
(750,637,o),
(687,700,o),
(600,700,cs),
(200,700,ls),
(113,700,o),
(50,637,o),
(50,550,cs),
(50,150,ls),
(50,63,o),
(113,0,o),
(200,0,cs)
);
},
{
closed = 1;
nodes = (
(371,200,o),
(350,221,o),
(350,250,cs),
(350,550,ls),
(350,579,o),
(371,600,o),
(400,600,cs),
(600,600,ls),
(629,600,o),
(650,579,o),
(650,550,cs),
(650,250,ls),
(650,221,o),
(629,200,o),
(600,200,cs),
(400,200,ls)
);
}
);
width = 800;
}
);
unicode = 48;
},
{
glyphname = one;
lastChange = "2023-04-02 09:13:09 +0000";
layers = (
{
layerId = m01;
shapes = (
{
closed = 1;
nodes = (
(150,700,l),
(450,700,l),
(450,0,l),
(150,0,l),
(150,600,l),
(50,600,l)
);
}
);
width = 500;
}
);
unicode = 49;
},
{
glyphname = two;
lastChange = "2023-04-02 09:32:14 +0000";
layers = (
{
layerId = m01;
shapes = (
{
closed = 1;
nodes = (
(50,550,ls),
(50,637,o),
(113,700,o),
(200,700,cs),
(600,700,ls),
(687,700,o),
(750,637,o),
(750,550,cs),
(750,549,ls),
(750,517,o),
(738,489,o),
(716,465,cs),
(464,200,l),
(750,200,l),
(750,0,l),
(50,0,l),
(50,80,l),
(416,465,ls),
(438,489,o),
(450,517,o),
(450,549,cs),
(450,550,ls),
(450,579,o),
(429,600,o),
(400,600,cs),
(200,600,ls),
(171,600,o),
(150,579,o),
(150,550,cs),
(150,500,l),
(50,500,l)
);
}
);
width = 800;
}
);
unicode = 50;
},
{
glyphname = three;
lastChange = "2023-04-02 09:38:18 +0000";
layers = (
{
layerId = m01;
shapes = (
{
closed = 1;
nodes = (
(600,0,ls),
(687,0,o),
(750,63,o),
(750,150,cs),
(750,300,ls),
(750,358,o),
(708,400,o),
(650,400,c),
(708,400,o),
(750,442,o),
(750,500,cs),
(750,550,ls),
(750,637,o),
(687,700,o),
(600,700,cs),
(200,700,ls),
(113,700,o),
(50,637,o),
(50,550,cs),
(50,500,l),
(350,500,l),
(350,550,ls),
(350,579,o),
(371,600,o),
(400,600,cs),
(600,600,ls),
(629,600,o),
(650,579,o),
(650,550,cs),
(650,500,ls),
(650,471,o),
(629,450,o),
(600,450,cs),
(450,450,l),
(450,350,l),
(600,350,ls),
(629,350,o),
(650,329,o),
(650,300,cs),
(650,250,ls),
(650,221,o),
(629,200,o),
(600,200,cs),
(400,200,ls),
(371,200,o),
(350,221,o),
(350,250,cs),
(350,300,l),
(50,300,l),
(50,150,ls),
(50,63,o),
(113,0,o),
(200,0,cs)
);
}
);
width = 800;
}
);
unicode = 51;
},
{
glyphname = four;
lastChange = "2023-04-02 10:05:17 +0000";
layers = (
{
layerId = m01;
shapes = (
{
closed = 1;
nodes = (
(50,100,l),
(450,100,l),
(450,0,l),
(750,0,l),
(750,100,l),
(800,100,l),
(800,200,l),
(750,200,l),
(750,700,l),
(402,700,l)
);
},
{
closed = 1;
nodes = (
(450,584,l),
(450,200,l),
(225,200,l)
);
}
);
width = 800;
}
);
unicode = 52;
},
{
glyphname = five;
lastChange = "2023-04-02 09:22:53 +0000";
layers = (
{
layerId = m01;
shapes = (
{
closed = 1;
nodes = (
(600,0,ls),
(687,0,o),
(750,63,o),
(750,150,cs),
(750,300,ls),
(750,387,o),
(687,450,o),
(600,450,cs),
(350,450,l),
(350,600,l),
(650,600,l),
(650,700,l),
(50,700,l),
(50,350,l),
(600,350,ls),
(629,350,o),
(650,329,o),
(650,300,cs),
(650,250,ls),
(650,221,o),
(629,200,o),
(600,200,cs),
(50,200,l),
(50,0,l)
);
}
);
width = 800;
}
);
unicode = 53;
},
{
glyphname = six;
lastChange = "2023-04-02 09:52:43 +0000";
layers = (
{
layerId = m01;
shapes = (
{
closed = 1;
nodes = (
(600,0,ls),
(687,0,o),
(750,63,o),
(750,150,cs),
(750,300,ls),
(750,387,o),
(687,450,o),
(600,450,cs),
(400,450,ls),
(381,450,o),
(359,446,o),
(350,442,c),
(350,550,ls),
(350,579,o),
(371,600,o),
(400,600,cs),
(650,600,l),
(650,700,l),
(200,700,ls),
(113,700,o),
(50,637,o),
(50,550,cs),
(50,150,ls),
(50,63,o),
(113,0,o),
(200,0,cs)
);
},
{
closed = 1;
nodes = (
(371,200,o),
(350,221,o),
(350,250,cs),
(350,300,ls),
(350,329,o),
(371,350,o),
(400,350,cs),
(600,350,ls),
(629,350,o),
(650,329,o),
(650,300,cs),
(650,250,ls),
(650,221,o),
(629,200,o),
(600,200,cs),
(400,200,ls)
);
}
);
width = 800;
}
);
unicode = 54;
},
{
glyphname = seven;
lastChange = "2023-04-02 11:10:31 +0000";
layers = (
{
layerId = m01;
shapes = (
{
closed = 1;
nodes = (
(398,0,l),
(750,600,l),
(402,600,l),
(50,0,l)
);
},
{
closed = 1;
nodes = (
(750,600,l),
(750,700,l),
(50,700,l),
(50,600,l)
);
}
);
width = 800;
}
);
unicode = 55;
},
{
glyphname = eight;
lastChange = "2023-04-02 09:52:14 +0000";
layers = (
{
layerId = m01;
shapes = (
{
closed = 1;
nodes = (
(600,0,ls),
(687,0,o),
(750,63,o),
(750,150,cs),
(750,300,ls),
(750,358,o),
(708,400,o),
(650,400,c),
(708,400,o),
(750,442,o),
(750,500,cs),
(750,550,ls),
(750,637,o),
(687,700,o),
(600,700,cs),
(200,700,ls),
(113,700,o),
(50,637,o),
(50,550,cs),
(50,500,ls),
(50,442,o),
(92,400,o),
(150,400,c),
(92,400,o),
(50,358,o),
(50,300,cs),
(50,150,ls),
(50,63,o),
(113,0,o),
(200,0,cs)
);
},
{
closed = 1;
nodes = (
(371,200,o),
(350,221,o),
(350,250,cs),
(350,300,ls),
(350,329,o),
(371,350,o),
(400,350,cs),
(600,350,ls),
(629,350,o),
(650,329,o),
(650,300,cs),
(650,250,ls),
(650,221,o),
(629,200,o),
(600,200,cs),
(400,200,ls)
);
},
{
closed = 1;
nodes = (
(371,450,o),
(350,471,o),
(350,500,cs),
(350,550,ls),
(350,579,o),
(371,600,o),
(400,600,cs),
(600,600,ls),
(629,600,o),
(650,579,o),
(650,550,cs),
(650,500,ls),
(650,471,o),
(629,450,o),
(600,450,cs),
(400,450,ls)
);
}
);
width = 800;
}
);
unicode = 56;
},
{
glyphname = nine;
lastChange = "2023-04-02 11:13:40 +0000";
layers = (
{
layerId = m01;
shapes = (
{
closed = 1;
nodes = (
(200,700,ls),
(113,700,o),
(50,637,o),
(50,550,cs),
(50,500,ls),
(50,413,o),
(113,350,o),
(200,350,cs),
(600,350,ls),
(619,350,o),
(641,354,o),
(650,358,c),
(650,250,ls),
(650,221,o),
(629,200,o),
(600,200,cs),
(50,200,l),
(50,0,l),
(600,0,ls),
(687,0,o),
(750,63,o),
(750,150,cs),
(750,550,ls),
(750,637,o),
(687,700,o),
(600,700,cs)
);
},
{
closed = 1;
nodes = (
(629,600,o),
(650,579,o),
(650,550,cs),
(650,500,ls),
(650,471,o),
(629,450,o),
(600,450,cs),
(400,450,ls),
(371,450,o),
(350,471,o),
(350,500,cs),
(350,550,ls),
(350,579,o),
(371,600,o),
(400,600,cs),
(600,600,ls)
);
}
);
width = 800;
}
);
unicode = 57;
},
